<?xml version="1.0" standalone="no"?>
<!DOCTYPE svg PUBLIC "-//W3C//DTD SVG 20010904//EN"
 "http://www.w3.org/TR/2001/REC-SVG-20010904/DTD/svg10.dtd">
<svg version="1.0" xmlns="http://www.w3.org/2000/svg"
 width="108.000000pt" height="81.000000pt" viewBox="0 0 108.000000 81.000000"
 preserveAspectRatio="xMidYMid meet">

<g transform="translate(0.000000,81.000000) scale(0.100000,-0.100000)"
fill="#000000" stroke="none">
<path d="M503 601 c-34 -10 -74 -26 -90 -37 -15 -10 -41 -23 -57 -29 -16 -5
-39 -23 -51 -40 l-23 -30 23 -49 c24 -52 23 -76 -2 -76 -12 0 -14 -9 -9 -47
12 -89 17 -103 34 -103 28 0 42 14 32 30 -17 27 -11 74 11 88 15 10 20 21 16
38 -6 34 8 39 31 9 18 -23 23 -24 66 -16 l46 8 0 -49 c0 -33 4 -47 11 -42 7 4
9 0 5 -13 -9 -29 3 -53 26 -53 17 0 18 3 8 15 -7 8 -9 22 -5 32 7 16 9 15 14
-7 5 -17 15 -26 31 -29 23 -3 24 -2 9 15 -11 13 -15 32 -11 62 4 37 10 47 43
68 21 13 42 24 47 24 4 0 16 -14 26 -30 20 -35 32 -32 41 10 4 17 10 30 15 30
9 0 19 22 30 69 7 27 4 44 -16 83 -25 49 -42 57 -88 39 -13 -5 -26 1 -46 21
-34 33 -73 36 -167 9z m217 -56 c-10 -12 -10 -18 0 -30 14 -17 8 -31 -9 -20
-15 9 -14 52 2 58 20 8 20 8 7 -8z"/>
<path d="M246 396 c-13 -21 -14 -26 -2 -26 21 0 41 29 29 41 -7 7 -16 2 -27
-15z"/>
</g>
</svg>
